<?xml version="1.0" standalone="no"?>
<!DOCTYPE svg PUBLIC "-//W3C//DTD SVG 20010904//EN"
 "http://www.w3.org/TR/2001/REC-SVG-20010904/DTD/svg10.dtd">
<svg version="1.0" xmlns="http://www.w3.org/2000/svg"
 width="1353.000000pt" height="1159.000000pt" viewBox="0 0 1353.000000 1159.000000"
 preserveAspectRatio="xMidYMid meet">

<g transform="translate(0.000000,1159.000000) scale(0.100000,-0.100000)"
fill="#000000" stroke="none">
<path d="M7302 9104 c-66 -23 -95 -44 -146 -103 -66 -78 -89 -145 -84 -246 5
-90 25 -140 83 -200 42 -45 44 -56 8 -50 -246 43 -901 55 -1328 24 -407 -29
-604 -78 -857 -214 -101 -54 -231 -200 -282 -316 -134 -305 -227 -894 -229
-1444 -1 -286 11 -360 79 -500 52 -106 105 -171 183 -224 46 -31 68 -39 123
-44 37 -3 106 -15 155 -26 48 -11 142 -32 208 -46 255 -56 296 -70 395 -139
25 -17 54 -31 65 -32 11 0 35 -1 53 -2 l32 -2 -32 -56 c-17 -31 -37 -80 -43
-108 l-12 -51 -20 47 c-25 56 -113 129 -191 158 -28 11 -91 27 -140 36 -127
23 -425 89 -832 184 -243 57 -408 92 -454 96 -28 2 -94 12 -147 21 -94 15 -99
15 -179 -5 -95 -25 -106 -33 -145 -104 -21 -39 -29 -70 -33 -123 -5 -84 -8
-72 133 -515 57 -179 115 -370 129 -426 14 -55 41 -150 60 -210 61 -190 118
-377 132 -427 l12 -48 -86 -41 c-48 -22 -160 -76 -250 -119 -89 -44 -164 -79
-167 -79 -3 0 -5 223 -5 495 0 346 -3 501 -11 519 -14 30 -60 51 -95 42 -14
-4 -37 -19 -50 -33 l-24 -26 0 -623 0 -624 26 -17 c26 -16 28 -16 83 14 31 18
103 55 161 83 58 28 184 91 281 140 97 50 180 90 185 90 5 0 20 -37 33 -82 38
-133 126 -227 262 -279 70 -27 209 -69 231 -69 9 0 19 -4 22 -9 3 -4 -61 -8
-142 -7 -135 1 -151 -1 -194 -22 -51 -25 -107 -83 -132 -137 -9 -18 -22 -66
-30 -106 -12 -62 -19 -78 -50 -106 -46 -43 -64 -42 -256 6 -391 100 -434 105
-466 56 -37 -56 -11 -132 54 -158 42 -17 246 -64 437 -102 168 -33 222 -32
294 1 102 47 156 120 181 239 10 49 20 68 56 104 l44 44 68 -9 c37 -5 105 -9
152 -9 78 0 91 3 148 34 35 19 76 50 92 69 l28 35 194 -57 c106 -31 261 -77
343 -101 83 -25 183 -51 223 -60 83 -17 187 -46 419 -116 235 -71 276 -68 518
39 44 20 127 52 185 73 128 45 393 155 476 197 33 17 75 47 92 67 29 32 32 42
32 98 0 108 -56 160 -206 192 -38 8 -150 35 -249 61 -99 25 -214 54 -255 64
-41 10 -142 35 -225 54 -82 20 -162 39 -177 42 l-27 6 22 -73 c17 -56 28 -75
42 -77 48 -9 185 -54 185 -62 0 -14 -93 -22 -140 -11 -24 5 -46 9 -47 7 -4 -4
29 -120 36 -128 4 -4 23 1 44 12 l37 20 107 -30 c58 -16 108 -31 110 -33 1 -2
-23 -16 -55 -31 -57 -27 -59 -28 -98 -11 -50 22 -127 45 -132 41 -2 -2 4 -29
13 -61 9 -31 15 -58 13 -59 -1 -2 -24 -10 -50 -19 l-48 -16 -31 102 c-17 56
-48 158 -69 227 -111 364 -194 649 -213 730 -8 36 -34 132 -57 214 -27 98 -39
159 -35 175 4 14 10 145 14 291 7 295 9 301 79 366 51 47 91 58 181 51 177
-14 632 -59 836 -83 121 -14 262 -26 313 -27 l94 -2 -55 -51 c-86 -80 -102
-118 -102 -244 0 -91 3 -112 24 -155 27 -55 130 -165 155 -165 23 0 20 -13
-11 -43 -30 -27 -107 -66 -134 -67 -9 0 -43 14 -75 30 -43 23 -84 34 -153 43
-92 11 -94 12 -118 49 -14 20 -36 44 -49 53 -23 15 -24 20 -24 134 0 151 -4
156 -115 176 -136 23 -598 94 -632 97 -20 1 -40 -5 -52 -16 -20 -18 -21 -30
-21 -213 0 -192 0 -194 -26 -233 -20 -29 -25 -47 -20 -67 13 -54 99 -318 109
-330 5 -7 11 -30 13 -50 1 -21 22 -96 46 -167 l43 -130 55 -18 c66 -23 350
-84 475 -103 98 -14 562 -107 905 -180 353 -76 383 -82 440 -90 30 -4 134 -25
230 -47 250 -58 446 -102 590 -133 69 -15 127 -30 130 -32 7 -6 -38 -38 -95
-68 -27 -14 -77 -46 -110 -70 -101 -74 -283 -195 -293 -195 -6 0 -30 -15 -54
-33 -55 -42 -323 -221 -468 -312 -61 -38 -128 -83 -149 -100 -20 -16 -68 -50
-106 -74 -39 -24 -113 -72 -166 -107 -57 -38 -107 -64 -123 -64 -29 0 -164 29
-416 89 -91 21 -199 44 -240 50 -41 7 -111 21 -155 31 -134 32 -639 149 -825
191 -96 22 -212 46 -256 54 -45 7 -149 30 -230 49 -620 149 -585 144 -621 102
-27 -32 -30 -81 -6 -116 24 -35 28 -37 128 -60 50 -12 135 -32 190 -45 55 -13
235 -56 400 -95 165 -39 401 -92 525 -116 124 -25 279 -58 345 -74 66 -15 192
-45 280 -65 88 -20 232 -54 320 -75 88 -22 201 -46 250 -54 50 -8 128 -24 175
-34 160 -38 165 -38 257 7 45 22 123 68 173 103 216 149 247 170 291 193 25
13 68 41 95 61 45 34 162 112 473 315 63 41 135 91 160 111 25 21 64 47 86 57
22 11 83 49 135 85 88 62 209 143 340 229 151 99 266 186 293 220 27 33 30 41
21 74 -10 41 -60 83 -99 83 -21 0 -92 -44 -161 -98 -16 -13 -60 -42 -98 -64
-62 -37 -73 -40 -100 -30 -56 19 -180 50 -226 57 -66 9 -364 76 -372 84 -4 3
2 47 13 96 11 50 33 155 49 235 16 80 47 231 68 335 22 105 43 215 47 245 3
30 24 142 46 249 56 270 53 331 -18 458 -56 102 -152 172 -276 202 -26 6 -105
16 -175 21 -70 5 -147 13 -172 16 l-45 7 59 14 c32 7 96 31 142 52 101 48 231
164 281 250 39 68 77 207 94 339 10 78 16 102 36 122 71 75 132 178 169 285
25 72 28 94 29 220 0 167 -19 245 -92 364 -35 58 -46 87 -50 130 -25 301 -35
370 -69 476 -41 130 -52 152 -123 242 -90 112 -176 183 -261 216 -182 69 -360
112 -679 163 l-33 5 52 52 c62 62 85 103 99 180 26 143 -57 303 -196 372 -72
36 -191 45 -261 19z m161 -178 c95 -41 133 -144 84 -228 -35 -61 -60 -80 -110
-85 -87 -10 -163 41 -186 124 -16 58 -13 85 14 126 46 67 128 93 198 63z
m-468 -606 c315 -29 412 -53 548 -133 78 -46 196 -151 235 -211 39 -57 97
-212 127 -336 14 -58 25 -110 25 -115 0 -6 -20 -22 -44 -37 -81 -49 -196 -228
-236 -368 -31 -110 -39 -333 -15 -432 34 -141 89 -238 199 -353 l66 -67 -20
-77 c-32 -123 -74 -243 -98 -282 -26 -43 -132 -124 -219 -168 -96 -48 -167
-60 -408 -71 -531 -25 -1352 41 -1940 155 -71 14 -140 25 -153 25 -38 0 -156
66 -215 120 -85 78 -121 139 -151 260 -47 187 -45 473 9 955 52 470 131 729
269 874 143 151 306 215 640 252 291 33 412 38 796 34 268 -3 424 -9 585 -25z
m952 -95 c216 -50 303 -87 416 -179 79 -65 139 -188 177 -361 15 -67 28 -176
21 -172 -62 34 -158 70 -210 78 -61 10 -124 6 -218 -14 -4 -1 -11 21 -15 48
-10 69 -53 214 -89 301 -33 80 -86 153 -190 262 -38 39 -62 72 -54 72 7 0 80
-16 162 -35z m518 -853 c105 -55 181 -141 227 -259 26 -64 32 -96 36 -183 5
-131 -8 -205 -54 -299 -43 -88 -149 -201 -215 -230 -57 -25 -162 -44 -202 -36
-109 21 -131 31 -178 76 -140 136 -184 416 -104 665 35 111 127 235 203 273
59 30 63 31 147 27 66 -2 90 -8 140 -34z m-524 -76 c10 -21 6 -33 -24 -83 -46
-75 -83 -186 -96 -291 -12 -95 -15 -102 -42 -102 -53 0 -46 119 18 322 46 147
114 220 144 154z m524 -1103 c-21 -105 -41 -175 -61 -210 -27 -48 -121 -133
-145 -133 -10 0 -58 -13 -107 -29 -70 -23 -207 -51 -249 -51 -3 0 14 23 37 50
49 58 90 158 116 278 17 82 18 84 43 77 100 -24 267 -14 331 21 33 18 39 17
35 -3z m-4470 -539 c243 -57 313 -72 359 -79 57 -8 291 -58 536 -115 96 -23
234 -54 305 -70 209 -46 260 -70 294 -138 27 -52 133 -414 160 -542 6 -30 64
-230 127 -445 64 -214 129 -439 146 -500 16 -60 50 -181 74 -269 52 -182 54
-228 13 -259 -31 -22 3 -29 -344 73 -110 33 -220 62 -245 66 -25 3 -103 23
-175 44 -71 21 -182 53 -245 70 -63 18 -162 45 -220 62 -58 16 -168 48 -245
69 -77 21 -152 44 -168 50 -63 26 -77 59 -211 504 -25 83 -52 179 -60 215 -15
67 -90 313 -226 740 -42 135 -92 295 -109 357 -35 127 -33 150 21 183 37 23
50 22 213 -16z m4152 -244 c153 -22 296 -45 318 -51 105 -29 175 -111 175
-205 0 -39 -75 -428 -129 -674 -25 -112 -70 -339 -76 -380 -13 -100 -61 -310
-70 -310 -5 0 -64 11 -130 25 -66 14 -192 39 -280 56 -88 16 -161 32 -163 34
-2 2 17 12 41 23 63 28 123 92 160 170 31 64 32 72 31 187 -2 174 -41 569 -64
654 -19 68 -19 74 -4 121 22 68 16 170 -15 233 -13 27 -45 71 -72 97 -27 27
-49 52 -49 55 0 10 51 5 327 -35z m-481 -94 c71 -19 100 -41 120 -91 21 -55
14 -81 -17 -64 -14 7 -48 10 -91 7 -56 -4 -77 -11 -116 -38 -46 -31 -85 -83
-108 -143 l-11 -29 -26 45 c-67 114 0 277 128 312 64 17 61 17 121 1z m-1216
-266 c113 -17 211 -30 218 -30 8 0 12 -16 12 -45 l0 -46 -72 7 c-83 7 -183 -8
-209 -32 -15 -14 -23 -14 -55 -4 -24 8 -66 11 -116 7 l-78 -5 0 98 0 97 48 -9
c26 -4 139 -22 252 -38z m1279 -54 l22 -23 -53 -5 c-29 -3 -61 -9 -70 -13 -15
-6 -18 -2 -18 19 0 47 81 62 119 22z m32 -121 c33 -17 49 -50 49 -98 l0 -31
-27 26 c-29 26 -98 48 -154 48 -29 0 -31 2 -24 27 3 15 12 31 18 35 21 13 107
9 138 -7z m-1076 -109 c170 -78 217 -301 80 -381 -58 -35 -66 -33 -59 14 12
75 -45 237 -121 342 -19 27 -35 53 -35 58 0 13 76 -6 135 -33z m-285 -41 c18
-17 38 -42 46 -57 14 -26 14 -27 -39 -44 -28 -9 -85 -33 -125 -51 -86 -41
-105 -39 -156 17 -44 48 -45 77 -7 114 43 41 95 57 178 53 64 -2 75 -6 103
-32z m1272 17 c26 -11 88 -95 88 -120 0 -13 -7 -37 -16 -53 l-15 -31 -28 44
c-17 26 -52 59 -89 82 -59 38 -60 39 -45 62 12 18 24 24 52 23 20 0 44 -3 53
-7z m-118 -148 c27 -19 36 -31 33 -45 -3 -10 -2 -19 3 -19 11 0 40 -62 33 -73
-8 -13 -85 -67 -95 -67 -6 0 -8 24 -6 54 1 30 0 52 -5 49 -4 -2 -10 4 -14 14
-3 10 -15 30 -25 45 -24 34 -23 47 5 58 31 12 28 13 71 -16z m-534 -48 c0 -39
-6 -30 -13 19 -4 27 -3 35 3 25 5 -8 10 -28 10 -44z m144 20 c25 -10 35 -22
40 -46 11 -58 10 -59 -36 -47 -24 5 -44 10 -45 11 0 1 -4 22 -8 49 -8 53 -4
55 49 33z m220 -31 c22 -23 40 -115 28 -146 -8 -21 -20 -28 -53 -33 -23 -4
-44 -4 -47 -2 -2 3 0 28 5 55 6 28 6 52 2 53 -4 2 -11 22 -15 46 l-7 42 36 0
c20 0 42 -7 51 -15z m-862 -52 c41 -37 4 -134 -86 -226 -51 -53 -81 -59 -134
-27 -46 28 -58 60 -43 110 16 54 70 104 145 134 74 29 94 31 118 9z m1308
-261 c-13 -61 -54 -114 -109 -141 -20 -10 -94 -38 -165 -61 l-130 -43 -115 21
c-174 32 -751 151 -761 157 -5 3 0 15 12 27 18 18 33 21 127 22 116 1 148 12
208 68 l31 30 29 -19 c94 -63 207 -93 358 -93 145 0 217 14 313 61 86 42 191
132 193 167 1 9 6 -19 11 -63 7 -56 6 -96 -2 -133z m-1086 -598 c98 -26 140
-44 102 -44 -10 0 -33 -9 -51 -20 l-33 -20 -111 36 c-61 20 -111 39 -111 43 0
11 43 28 74 30 16 0 75 -11 130 -25z m396 -149 c13 -14 22 -26 19 -28 -5 -5
-149 -58 -224 -84 -60 -21 -237 -91 -495 -197 -145 -60 -164 -64 -195 -40 -20
15 -20 15 5 34 14 11 84 43 155 71 72 29 153 62 180 74 28 12 82 32 120 45 39
12 142 51 230 86 88 34 165 63 171 63 6 1 21 -10 34 -24z"/>
<path d="M5760 7989 c-394 -15 -578 -49 -690 -129 -34 -24 -90 -105 -119 -171
-71 -159 -133 -649 -135 -1054 -1 -206 0 -224 22 -288 48 -137 130 -210 274
-244 214 -51 414 -82 783 -122 317 -35 483 -44 790 -45 329 -1 364 4 449 62
43 29 97 96 122 151 49 106 94 635 94 1096 0 328 -25 450 -112 553 -112 132
-278 172 -808 192 -270 11 -380 11 -670 -1z m-197 -535 c55 -19 108 -70 145
-139 22 -42 27 -63 26 -125 0 -86 -18 -128 -81 -196 -44 -47 -89 -64 -173 -64
-99 1 -130 13 -191 78 -95 101 -112 200 -54 319 26 52 88 113 136 132 38 15
141 13 192 -5z m1245 -41 c58 -27 102 -82 135 -167 24 -63 18 -136 -18 -204
-35 -69 -64 -97 -125 -122 -45 -18 -66 -21 -125 -17 -88 7 -145 35 -194 97
-99 125 -76 294 54 392 83 63 171 69 273 21z"/>
<path d="M8325 7251 c-108 -50 -169 -181 -169 -361 0 -115 22 -205 68 -280 38
-63 116 -127 164 -136 107 -20 217 69 269 220 14 39 18 82 18 181 0 125 -1
133 -31 195 -41 87 -85 135 -155 171 -67 34 -108 36 -164 10z"/>
<path d="M4216 5217 c101 -92 169 -222 197 -373 26 -141 2 -222 -83 -277 l-28
-18 57 -57 c66 -66 123 -172 141 -258 29 -141 83 -221 218 -326 44 -34 73 -46
180 -74 70 -19 131 -34 136 -34 5 0 -12 22 -37 49 -73 78 -114 150 -142 252
-47 168 -130 305 -209 346 l-30 16 37 19 c84 43 110 141 78 293 -29 141 -86
238 -201 339 -81 73 -93 78 -230 117 -62 17 -120 33 -129 36 -9 3 11 -20 45
-50z"/>
<path d="M4866 5081 c5 -4 52 -42 104 -83 96 -77 252 -230 285 -281 10 -15 20
-26 22 -23 8 7 -49 291 -61 302 -9 9 -328 94 -353 94 -4 0 -3 -4 3 -9z"/>
<path d="M4892 4632 c3 -11 23 -119 43 -240 l38 -221 32 42 c38 49 94 90 148
107 21 6 37 16 35 20 -7 20 -300 310 -296 292z"/>
<path d="M4970 4631 c0 -27 103 -149 203 -242 l61 -56 -53 -18 c-68 -22 -151
-99 -151 -138 0 -24 4 -22 63 37 49 50 75 69 125 86 l63 23 -109 111 c-59 61
-129 136 -155 166 -41 48 -47 52 -47 31z"/>
<path d="M5393 3978 c-30 -50 -112 -113 -206 -156 -64 -29 -76 -38 -61 -44 27
-11 346 -89 349 -86 2 2 -11 75 -29 162 l-32 160 -21 -36z"/>
<path d="M7563 3259 c-195 -30 -397 -151 -468 -280 -36 -67 -45 -160 -21 -223
19 -49 89 -120 139 -141 125 -52 270 -12 527 145 47 29 120 70 162 92 114 58
163 127 144 201 -8 33 -64 101 -113 137 -85 63 -232 90 -370 69z m196 -159
c32 -9 81 -45 81 -60 0 -4 -24 -20 -52 -35 -29 -16 -100 -58 -158 -95 -175
-112 -277 -141 -357 -103 -55 26 -61 52 -28 118 41 84 140 154 259 181 65 15
194 12 255 -6z"/>
</g>
</svg>
